<svg width="22" height="22" viewBox="0 0 22 22" fill="none" xmlns="http://www.w3.org/2000/svg">
<path fill-rule="evenodd" clip-rule="evenodd" d="M10.0542 2.23943C10.6969 2.8589 10.5163 3.75866 10.2688 4.34135L10.2682 4.34275C9.92185 5.15435 9.73127 6.04427 9.73834 6.98656L9.73836 6.98973C9.7525 10.492 12.5921 13.4556 16.0284 13.5996L16.0292 13.5997C16.5385 13.6214 17.0246 13.5853 17.4967 13.4987C18.112 13.3839 19.0456 13.3911 19.5098 14.1699C19.7359 14.5492 19.741 14.9635 19.6618 15.3053C19.5837 15.642 19.4148 15.9622 19.205 16.2537C17.44 18.7289 14.4953 20.3037 11.2026 20.1573L11.202 20.1573C6.52299 19.9463 2.6372 16.1181 2.31576 11.4117C2.02241 7.24074 4.43727 3.59544 7.96717 2.06933C8.53957 1.8209 9.42389 1.63179 10.0542 2.23943ZM8.49154 3.84358C8.10699 4.8194 7.89687 5.88181 7.90504 6.99872C7.92392 11.463 11.5198 15.2451 15.9509 15.4313C16.5188 15.4556 17.0677 15.4232 17.6019 15.3401C16.1705 17.2457 13.8599 18.4403 11.284 18.3258C7.54833 18.1571 4.40309 15.0743 4.14478 11.286L4.14464 11.2839C3.91316 7.9976 5.76084 5.12196 8.49154 3.84358Z" fill="#808281"/>
</svg>
