<svg width="22" height="22" viewBox="0 0 22 22" fill="none" xmlns="http://www.w3.org/2000/svg">
<path fill-rule="evenodd" clip-rule="evenodd" d="M11 1.83331C11.5063 1.83331 11.9167 2.24372 11.9167 2.74998V2.81598C11.9167 3.32224 11.5063 3.73265 11 3.73265C10.4937 3.73265 10.0833 3.32224 10.0833 2.81598V2.74998C10.0833 2.24372 10.4937 1.83331 11 1.83331ZM4.46132 4.4613C4.8193 4.10332 5.3997 4.10332 5.75768 4.4613L5.86493 4.56855C6.22291 4.92653 6.22291 5.50693 5.86493 5.86491C5.50695 6.22289 4.92655 6.22289 4.56857 5.86491L4.46132 5.75766C4.10334 5.39968 4.10334 4.81928 4.46132 4.4613ZM17.5387 4.4613C17.8967 4.81927 17.8967 5.39968 17.5387 5.75766L17.4314 5.86491C17.0735 6.22289 16.4931 6.22289 16.1351 5.86491C15.7771 5.50693 15.7771 4.92653 16.1351 4.56855L16.2423 4.4613C16.6003 4.10332 17.1807 4.10332 17.5387 4.4613ZM11 6.41665C8.46869 6.41665 6.41667 8.46867 6.41667 11C6.41667 13.5313 8.46869 15.5833 11 15.5833C13.5313 15.5833 15.5833 13.5313 15.5833 11C15.5833 8.46867 13.5313 6.41665 11 6.41665ZM4.58333 11C4.58333 7.45615 7.45617 4.58331 11 4.58331C14.5438 4.58331 17.4167 7.45615 17.4167 11C17.4167 14.5438 14.5438 17.4166 11 17.4166C7.45617 17.4166 4.58333 14.5438 4.58333 11ZM1.83333 11C1.83333 10.4937 2.24374 10.0833 2.75 10.0833H2.816C3.32226 10.0833 3.73267 10.4937 3.73267 11C3.73267 11.5062 3.32226 11.9166 2.816 11.9166H2.75C2.24374 11.9166 1.83333 11.5062 1.83333 11ZM18.2673 11C18.2673 10.4937 18.6777 10.0833 19.184 10.0833H19.25C19.7563 10.0833 20.1667 10.4937 20.1667 11C20.1667 11.5062 19.7563 11.9166 19.25 11.9166H19.184C18.6777 11.9166 18.2673 11.5062 18.2673 11ZM5.86493 16.1351C6.22291 16.493 6.22291 17.0734 5.86493 17.4314L5.75768 17.5387C5.3997 17.8966 4.81929 17.8966 4.46131 17.5387C4.10334 17.1807 4.10334 16.6003 4.46132 16.2423L4.56857 16.135C4.92655 15.7771 5.50695 15.7771 5.86493 16.1351ZM16.1351 16.135C16.493 15.7771 17.0734 15.7771 17.4314 16.135L17.5387 16.2423C17.8967 16.6003 17.8967 17.1807 17.5387 17.5387C17.1807 17.8966 16.6003 17.8966 16.2423 17.5387L16.1351 17.4314C15.7771 17.0734 15.7771 16.493 16.1351 16.135ZM11 18.2673C11.5063 18.2673 11.9167 18.6777 11.9167 19.184V19.25C11.9167 19.7562 11.5063 20.1666 11 20.1666C10.4937 20.1666 10.0833 19.7562 10.0833 19.25V19.184C10.0833 18.6777 10.4937 18.2673 11 18.2673Z" fill="#05162E"/>
</svg>
